<svg width="31" height="31" fill="none" xmlns="http://www.w3.org/2000/svg"><path d="M14.728 29.937c-.354-.363-.538-.825-.555-1.386-.017-.561.152-1.023.507-1.387l9.438-9.703H2.593a1.84 1.84 0 0 1-1.373-.57c-.37-.38-.555-.85-.553-1.41 0-.56.185-1.031.554-1.412.37-.38.827-.57 1.372-.568h21.525L14.68 3.798c-.354-.363-.522-.825-.507-1.386.015-.561.2-1.023.555-1.386.353-.363.802-.545 1.348-.545s.995.182 1.348.545l12.713 13.07c.193.164.33.37.41.619.081.248.12.504.12.766 0 .264-.04.512-.12.743a1.72 1.72 0 0 1-.41.643l-12.713 13.07c-.353.363-.802.544-1.348.544s-.995-.181-1.348-.544Z" fill="#F3F6F9"/></svg>